<svg width="115" height="102" viewBox="0 0 115 102" fill="none" xmlns="http://www.w3.org/2000/svg">
<path opacity="0.05" d="M26.929 102L48.2662 100.604L115 66.9467L89.469 55.7767L26.929 102Z" fill="black"/>
<path d="M98.151 68.049L27.0761 101.706V47.1787L98.151 13.5216V68.049Z" fill="#CA9761"/>
<path d="M27.0761 101.706L0 88.1844V33.657L27.0761 47.1787V101.706Z" fill="#D8B268"/>
<path d="M98.151 13.5216L27.0761 47.1787L0 33.6571L71.0749 0L98.151 13.5216Z" fill="#E3BB6D"/>
<path d="M27.0761 47.2521L0 33.7305V33.657H0.0735765L27.0761 47.1052V47.2521Z" fill="#F0C673"/>
<path d="M27.0761 47.2522L98.151 13.5951V13.5216L98.0774 13.4481L27.0761 47.1052V47.2522Z" fill="#F0DAAF"/>
<path d="M27.0761 47.1787L98.151 13.5216L27.0761 47.1787Z" fill="#CAB093"/>
<path d="M27.0761 50.4856V47.1786C27.0761 47.1786 25.531 85.2449 27.0761 101.706V87.5965C26.4875 78.6311 26.7818 54.3069 27.0761 50.4856Z" fill="#CA9761"/>
<path d="M27.0761 100.236V47.6931C26.7818 51.4409 26.4875 91.3443 27.0761 100.236Z" fill="#AC7C47"/>
<path d="M14.6417 54.9683L10.7422 53.0576V39.0951L14.6417 41.0058V54.9683Z" fill="#019F6E"/>
<path d="M10.7422 39.0951L14.6417 41.0058L85.9373 7.4222L82.0377 5.51154L10.7422 39.0951Z" fill="#14A800"/>
<path d="M9.19705 45.121L2.35445 43.1369L1.5451 38.8746L8.38771 40.8588L9.19705 45.121Z" fill="white"/>
<path d="M3.31094 42.6959L3.16379 42.6225L2.64875 39.9034H2.7959L3.31094 42.6959Z" fill="#5B677E"/>
<path d="M3.53167 42.7694L3.45809 42.6959L2.86948 39.9769H3.01663L3.53167 42.7694Z" fill="#5B677E"/>
<path d="M3.67882 42.7694H3.60524L3.09021 40.0504H3.16378L3.67882 42.7694Z" fill="#5B677E"/>
<path d="M3.89955 42.8429H3.82597L3.31094 40.0504L3.38452 40.1239L3.89955 42.8429Z" fill="#5B677E"/>
<path d="M4.0467 42.9164H3.97313L3.45809 40.1239H3.53167L4.0467 42.9164Z" fill="#5B677E"/>
<path d="M4.34101 42.9899L4.19386 42.9164L3.67882 40.1974L3.82598 40.2709L4.34101 42.9899Z" fill="#5B677E"/>
<path d="M5.07677 43.2104H5.0032L4.48816 40.4178L4.56174 40.4913L5.07677 43.2104Z" fill="#5B677E"/>
<path d="M5.2975 43.2838L5.22393 43.2104L4.70889 40.4913H4.78247L5.2975 43.2838Z" fill="#5B677E"/>
<path d="M5.59181 43.3573L5.37108 43.2838L4.85604 40.5648H5.07677L5.59181 43.3573Z" fill="#5B677E"/>
<path d="M4.63531 43.0634H4.48816L3.97313 40.2709L4.12028 40.3444L4.63531 43.0634Z" fill="#5B677E"/>
<path d="M4.92962 43.1369H4.70889L4.19385 40.3444L4.41458 40.4178L4.92962 43.1369Z" fill="#5B677E"/>
<path d="M5.81254 43.4308L5.66539 43.3573L5.15035 40.6383H5.2975L5.81254 43.4308Z" fill="#5B677E"/>
<path d="M6.03327 43.5043L5.95969 43.4308L5.44466 40.7118H5.51823L6.03327 43.5043Z" fill="#5B677E"/>
<path d="M6.254 43.5043H6.10684L5.59181 40.7853H5.66538L6.254 43.5043Z" fill="#5B677E"/>
<path d="M6.40115 43.5778H6.32757L5.81254 40.7853L5.88611 40.8588L6.40115 43.5778Z" fill="#5B677E"/>
<path d="M6.62188 43.6513H6.5483L6.03327 40.8588H6.10684L6.62188 43.6513Z" fill="#5B677E"/>
<path d="M6.91618 43.7248L6.69545 43.6513L6.18042 40.9323L6.32757 41.0057L6.91618 43.7248Z" fill="#5B677E"/>
<path d="M7.65195 43.9452H7.5048L6.98976 41.1527H7.13692L7.65195 43.9452Z" fill="#5B677E"/>
<path d="M7.7991 44.0187L7.72553 43.9452L7.21049 41.2262H7.28407L7.7991 44.0187Z" fill="#5B677E"/>
<path d="M8.09341 44.0922L7.94626 44.0187L7.43122 41.2997H7.57837L8.09341 44.0922Z" fill="#5B677E"/>
<path d="M7.13691 43.7982L6.98976 43.7248L6.47473 41.0057L6.62188 41.0792L7.13691 43.7982Z" fill="#5B677E"/>
<path d="M7.43122 43.8717H7.28406L6.76903 41.0792L6.91618 41.1527L7.43122 43.8717Z" fill="#5B677E"/>
<path d="M25.1631 52.3963L16.5547 48.134V44.0922L25.1631 48.3545V52.3963Z" fill="white"/>
<path d="M4.0467 85.6124L1.03007 84.0691C0.882916 83.9956 0.80934 84.0691 0.80934 84.1426V87.1556C0.80934 87.3026 0.882916 87.376 1.03007 87.4495L4.0467 88.9928C4.19386 89.0662 4.26743 88.9928 4.26743 88.9193V85.9063C4.26743 85.8328 4.12028 85.6858 4.0467 85.6124ZM4.0467 88.6988C4.0467 88.8458 3.97313 88.8458 3.82597 88.7723L1.17722 87.4495C1.03007 87.376 0.956492 87.2291 0.956492 87.1556V84.4366C0.956492 84.2896 1.03007 84.2896 1.17722 84.3631L3.89955 85.6858C4.0467 85.7593 4.12028 85.9063 4.12028 85.9798V88.6988H4.0467Z" fill="#5B677E"/>
<path d="M1.98656 87.376L1.76583 87.3025V85.1714L1.98656 85.3184V87.376Z" fill="#5B677E"/>
<path d="M1.83941 84.9509L1.61868 85.3918L1.83941 85.4653L2.13371 85.6123L1.83941 84.9509Z" fill="#5B677E"/>
<path d="M3.23736 88.0374L3.09021 87.9639V85.8328L3.23736 85.9797V88.0374Z" fill="#5B677E"/>
<path d="M3.16379 85.6123L2.86948 86.0532L3.16379 86.1267L3.38452 86.2737L3.16379 85.6123Z" fill="#5B677E"/>
<path d="M1.32438 87.3761V87.1556L3.67882 88.3314V88.5519L1.32438 87.3761Z" fill="#5B677E"/>
<path d="M8.09341 87.67L5.07677 86.1268C4.92962 86.0533 4.85604 86.1268 4.85604 86.2002V89.2132C4.85604 89.3602 4.92962 89.4337 5.07677 89.5072L8.09341 91.1239C8.24056 91.1974 8.31414 91.1239 8.31414 91.0504V88.0374C8.31414 87.817 8.24056 87.7435 8.09341 87.67ZM8.16699 90.7564C8.16699 90.9034 8.09341 90.9034 7.94626 90.8299L5.22393 89.5072C5.07677 89.4337 5.0032 89.2867 5.0032 89.2132V86.4942C5.0032 86.3472 5.07677 86.3472 5.22393 86.4207L7.94626 87.7435C8.09341 87.817 8.16699 87.9639 8.16699 88.0374V90.7564Z" fill="#5B677E"/>
<path d="M7.28407 89.1397C7.06334 88.9927 6.84261 88.6987 6.84261 88.4783V87.376L7.7991 87.8169V88.9192C7.7991 89.2131 7.57837 89.2866 7.28407 89.1397Z" fill="#5B677E"/>
<path d="M7.35764 90.3154L7.28407 90.242V89.0662L7.35764 89.1397V90.3154Z" fill="#5B677E"/>
<path d="M6.84261 90.095C6.84261 90.0215 6.91619 90.0215 6.91619 90.0215L7.65195 90.3889C7.72553 90.3889 7.72553 90.4624 7.72553 90.5359L6.84261 90.095Z" fill="#5B677E"/>
<path d="M5.44466 86.7146V87.8169C5.44466 88.0374 5.66539 88.4048 5.88612 88.4783C6.10684 88.6253 6.32757 88.4783 6.32757 88.2578V87.1555L5.44466 86.7146ZM6.254 88.1843C6.254 88.4048 6.10684 88.4783 5.88612 88.4048C5.66539 88.3313 5.51823 88.0374 5.51823 87.8169V86.8616L6.254 87.229V88.1843Z" fill="#5B677E"/>
<path d="M5.95969 89.5806L5.81254 89.5071V88.4048H5.95969V89.5806Z" fill="#5B677E"/>
<path d="M5.44466 89.3601C5.44466 89.2866 5.51823 89.2866 5.51823 89.2866L6.254 89.6541C6.32757 89.6541 6.32757 89.7275 6.32757 89.801L5.44466 89.3601Z" fill="#5B677E"/>
<path d="M12.2137 89.7276L9.19705 88.1844C9.0499 88.1109 8.97632 88.1844 8.97632 88.2579V91.2708C8.97632 91.4178 9.0499 91.4913 9.19705 91.5648L12.2137 93.108C12.3608 93.1815 12.4344 93.108 12.4344 93.0345V90.0215C12.4344 89.8746 12.3608 89.7276 12.2137 89.7276ZM12.2873 92.8141C12.2873 92.961 12.2137 92.961 12.0665 92.8875L9.34421 91.5648C9.19705 91.4913 9.12348 91.3443 9.12348 91.2708V88.5518C9.12348 88.4048 9.19705 88.4048 9.34421 88.4783L12.0665 89.8011C12.2137 89.8746 12.2873 90.0215 12.2873 90.095V92.8141Z" fill="#5B677E"/>
<path d="M10.08 90.3155C10.1535 90.3155 10.3007 90.3155 10.3743 90.389C10.5214 90.4625 10.595 90.536 10.6686 90.6829C10.7422 90.6829 10.8893 90.6829 10.9629 90.7564C11.11 90.8299 11.1836 90.9034 11.2572 91.0504C11.3308 91.0504 11.4779 91.0504 11.5515 91.1239C11.5515 91.1239 11.6251 91.1239 11.6251 91.1973C11.5515 90.6095 11.11 89.9481 10.595 89.7276C10.0064 89.4337 9.56493 89.6541 9.56493 90.1685H9.63851C9.85924 90.095 10.0064 90.1685 10.08 90.3155Z" fill="#5B677E"/>
<path d="M10.5214 92.0057C10.3743 91.9322 10.2271 91.7118 10.2271 91.5648V91.4913C10.2271 91.4913 10.2271 91.4178 10.3007 91.4913L10.3743 91.5648V91.6383C10.3743 91.7118 10.4479 91.8587 10.5214 91.8587C10.595 91.9322 10.6686 91.8587 10.6686 91.7852V89.4337C10.6686 89.4337 10.6686 89.3602 10.7422 89.4337L10.8157 89.5072V91.8587C10.8157 92.0057 10.6686 92.0792 10.5214 92.0057Z" fill="#5B677E"/>
<path d="M72.7671 3.67432L65.5566 7.27518L65.3359 7.20169L72.5464 3.60083L72.7671 3.67432Z" fill="#5B677E"/>
<path d="M73.4293 4.04175L66.2188 7.64261L65.9981 7.56913L73.2086 3.96826L73.4293 4.04175Z" fill="#5B677E"/>
<path d="M74.1651 4.40918L66.9546 8.01004L66.7338 7.86307L73.9443 4.33569L74.1651 4.40918Z" fill="#5B677E"/>
<path d="M74.8272 4.77661L67.6903 8.37748L67.4696 8.2305L74.6065 4.62964L74.8272 4.77661Z" fill="#5B677E"/>
<path d="M29.7249 39.3156L22.5144 42.9164L22.2937 42.7694L29.5042 39.2421L29.7249 39.3156Z" fill="#5B677E"/>
<path d="M30.3871 39.683L23.2502 43.2839L22.9559 43.1369L30.1663 39.536L30.3871 39.683Z" fill="#5B677E"/>
<path d="M31.1228 40.0504L23.9123 43.6513L23.6916 43.5043L30.9021 39.9034L31.1228 40.0504Z" fill="#5B677E"/>
<path d="M31.8586 40.3444L24.6481 43.9452L24.4274 43.8717L31.6379 40.2709L31.8586 40.3444Z" fill="#5B677E"/>
</svg>
