<svg width="152" height="77" viewBox="0 0 152 77" fill="none" xmlns="http://www.w3.org/2000/svg">
<path opacity="0.05" d="M57.9971 76.8506L79.6155 75.3569L152 39.5829L126.132 28.2308L57.9971 76.8506Z" fill="black"/>
<path d="M135.227 38.388L57.9971 77V67.5897L135.227 28.9777V38.388Z" fill="#CA9761"/>
<path d="M57.9971 77L0 48.0223V38.612L57.9971 67.5897V77Z" fill="#D8B268"/>
<path d="M135.227 28.9777L57.9971 67.5897L0 38.612L77.23 0L135.227 28.9777Z" fill="#E3BB6D"/>
<path d="M57.9971 67.6644L0 38.6867V38.612L0.149093 38.5374L57.9971 67.4404V67.6644Z" fill="#F0C673"/>
<path d="M57.9971 67.6644L135.227 29.0524V28.9777L135.078 28.903L57.9971 67.4404V67.6644Z" fill="#F0DAAF"/>
<path d="M57.9971 67.5898L135.227 28.9777L57.9971 67.5898Z" fill="#CAB093"/>
<path d="M35.4095 61.9137L28.2531 58.3288V52.8021L35.4095 56.387V61.9137Z" fill="#019F6E"/>
<path d="M28.2531 52.8021L35.4095 56.387L113.087 17.8497L106.005 14.3395L28.2531 52.8021Z" fill="#14A800"/>
<path d="M30.1168 35.8487L18.5621 41.6741L10.6602 37.7905L22.2148 31.9651L30.1168 35.8487Z" fill="white"/>
<path d="M19.0839 40.031L18.7857 40.1804L13.642 37.6411L13.9402 37.4918L19.0839 40.031Z" fill="#5B677E"/>
<path d="M19.3821 39.8817H19.233L14.0893 37.4171L14.2384 37.3424L19.3821 39.8817Z" fill="#5B677E"/>
<path d="M19.7548 39.6576L19.6057 39.7323L14.462 37.2677L14.6111 37.193L19.7548 39.6576Z" fill="#5B677E"/>
<path d="M20.053 39.5083L19.904 39.583L14.7603 37.0437L14.9093 36.969L20.053 39.5083Z" fill="#5B677E"/>
<path d="M20.3512 39.3589L20.2021 39.4335L15.0584 36.8943L15.2075 36.8196L20.3512 39.3589Z" fill="#5B677E"/>
<path d="M20.7985 39.1348L20.5748 39.2842L15.4312 36.7449L15.7293 36.5955L20.7985 39.1348Z" fill="#5B677E"/>
<path d="M22.0657 38.4626L21.9166 38.5373L16.7729 36.0727L16.922 35.998L22.0657 38.4626Z" fill="#5B677E"/>
<path d="M22.4385 38.3133L22.2894 38.388L17.1457 35.8487L17.2948 35.774L22.4385 38.3133Z" fill="#5B677E"/>
<path d="M22.8858 38.0892L22.5876 38.2386L17.4439 35.6993L17.7421 35.5499L22.8858 38.0892Z" fill="#5B677E"/>
<path d="M21.3203 38.9107L21.0221 39.0601L15.8784 36.5208L16.1766 36.3715L21.3203 38.9107Z" fill="#5B677E"/>
<path d="M21.7676 38.6867L21.4694 38.7614L16.3257 36.2968L16.6239 36.1475L21.7676 38.6867Z" fill="#5B677E"/>
<path d="M23.3331 37.8652L23.0349 38.0146L17.8912 35.4753L18.1894 35.3259L23.3331 37.8652Z" fill="#5B677E"/>
<path d="M23.6312 37.7158L23.5567 37.7905L18.413 35.2512L18.5621 35.1765L23.6312 37.7158Z" fill="#5B677E"/>
<path d="M24.004 37.5664H23.8549L18.7112 35.1018L18.8603 35.0272L24.004 37.5664Z" fill="#5B677E"/>
<path d="M24.3021 37.3424L24.153 37.4171L19.0093 34.9525L19.1584 34.8778L24.3021 37.3424Z" fill="#5B677E"/>
<path d="M24.6003 37.193L24.5258 37.2677L19.3821 34.7284L19.5312 34.6537L24.6003 37.193Z" fill="#5B677E"/>
<path d="M25.1222 36.969L24.824 37.1183L19.6803 34.5791L19.9785 34.4297L25.1222 36.969Z" fill="#5B677E"/>
<path d="M26.3149 36.3715H26.2404L21.0967 33.9069L21.2458 33.8322L26.3149 36.3715Z" fill="#5B677E"/>
<path d="M26.6876 36.1474L26.5385 36.2221L21.3948 33.7575L21.5439 33.6828L26.6876 36.1474Z" fill="#5B677E"/>
<path d="M27.1349 35.9234L26.8368 36.0727L21.6931 33.5335L21.9912 33.3841L27.1349 35.9234Z" fill="#5B677E"/>
<path d="M25.5694 36.7449L25.2713 36.8943L20.1276 34.355L20.4257 34.2056L25.5694 36.7449Z" fill="#5B677E"/>
<path d="M26.0167 36.5209L25.7185 36.6702L20.5748 34.1309L20.873 33.9816L26.0167 36.5209Z" fill="#5B677E"/>
<path d="M45.6224 40.8526L30.0422 48.6198L22.6621 44.9602L38.2423 37.1183L45.6224 40.8526Z" fill="white"/>
<path d="M110.552 33.0854L106.079 35.3259C105.93 35.4006 105.93 35.55 106.079 35.6247L110.552 37.8652C110.701 37.9399 111 37.9399 111.149 37.8652L115.621 35.6247C115.77 35.55 115.77 35.4006 115.621 35.3259L111.149 33.0854C111 33.0107 110.701 33.0107 110.552 33.0854ZM115.1 35.3259C115.249 35.4006 115.249 35.55 115.1 35.6247L111.149 37.6411C111 37.7158 110.701 37.7158 110.552 37.6411L106.601 35.6247C106.452 35.55 106.452 35.4006 106.601 35.3259L110.552 33.3094C110.701 33.2347 111 33.2347 111.149 33.3094L115.1 35.3259Z" fill="#5B677E"/>
<path d="M111.596 36.6702L111.372 36.8196L108.316 35.2512L108.614 35.1019L111.596 36.6702Z" fill="#5B677E"/>
<path d="M108.018 34.9525L108.39 35.55L108.838 35.4006L109.21 35.1766L108.018 34.9525Z" fill="#5B677E"/>
<path d="M113.534 35.6994L113.236 35.8487L110.18 34.2804L110.478 34.131L113.534 35.6994Z" fill="#5B677E"/>
<path d="M109.956 34.0563L110.329 34.5791L110.701 34.4297L111.074 34.2056L109.956 34.0563Z" fill="#5B677E"/>
<path d="M111.149 37.3424L110.85 37.193L114.28 35.4753L114.578 35.55L111.149 37.3424Z" fill="#5B677E"/>
<path d="M116.516 30.0979L112.043 32.3385C111.894 32.4132 111.894 32.5625 112.043 32.6372L116.516 34.8778C116.665 34.9525 116.963 34.9525 117.112 34.8778L121.585 32.6372C121.734 32.5625 121.734 32.4132 121.585 32.3385L117.112 30.0979C116.963 30.0233 116.665 30.0233 116.516 30.0979ZM121.138 32.2638C121.287 32.3385 121.287 32.4879 121.138 32.5625L117.187 34.579C117.038 34.6537 116.74 34.6537 116.59 34.579L112.64 32.5625C112.49 32.4879 112.49 32.3385 112.64 32.2638L116.59 30.2473C116.74 30.1726 117.038 30.1726 117.187 30.2473L121.138 32.2638Z" fill="#5B677E"/>
<path d="M118.156 32.0398C117.783 32.2638 117.187 32.2638 116.814 32.0398L115.249 31.2182L116.59 30.5461L118.156 31.3676C118.529 31.5917 118.529 31.8904 118.156 32.0398Z" fill="#5B677E"/>
<path d="M119.796 32.7866L119.647 32.8613L118.007 32.0398L118.156 31.9651L119.796 32.7866Z" fill="#5B677E"/>
<path d="M119.2 33.2347C119.125 33.16 119.125 33.0853 119.2 33.0853L120.243 32.5625C120.318 32.4879 120.467 32.4879 120.541 32.5625L119.2 33.2347Z" fill="#5B677E"/>
<path d="M113.161 32.3385L114.727 33.1601C115.1 33.3841 115.696 33.3841 116.069 33.1601C116.441 32.936 116.441 32.6373 116.069 32.4879L114.503 31.6664L113.161 32.3385ZM115.92 32.4879C116.218 32.6373 116.218 32.8613 115.92 33.0107C115.621 33.1601 115.174 33.1601 114.876 33.0107L113.46 32.2639L114.503 31.7411L115.92 32.4879Z" fill="#5B677E"/>
<path d="M117.709 33.8322L117.56 33.9816L115.92 33.1601L116.069 33.0107L117.709 33.8322Z" fill="#5B677E"/>
<path d="M117.038 34.2803C116.963 34.2056 116.963 34.1309 117.038 34.1309L118.081 33.6081C118.156 33.5335 118.305 33.5335 118.38 33.6081L117.038 34.2803Z" fill="#5B677E"/>
<path d="M122.48 27.1106L118.007 29.3511C117.858 29.4258 117.858 29.5752 118.007 29.6499L122.48 31.8904C122.629 31.9651 122.927 31.9651 123.076 31.8904L127.549 29.6499C127.698 29.5752 127.698 29.4258 127.549 29.3511L123.076 27.1106C122.927 27.0359 122.703 27.0359 122.48 27.1106ZM127.102 29.2764C127.251 29.3511 127.251 29.5005 127.102 29.5752L123.151 31.5917C123.001 31.6664 122.703 31.6664 122.554 31.5917L118.603 29.5752C118.454 29.5005 118.454 29.3511 118.603 29.2764L122.554 27.2599C122.703 27.1853 123.001 27.1853 123.151 27.2599L127.102 29.2764Z" fill="#5B677E"/>
<path d="M121.809 29.8739C121.809 29.7245 121.958 29.6498 122.107 29.5752C122.256 29.5005 122.554 29.4258 122.778 29.4258C122.778 29.2764 122.927 29.2017 123.076 29.127C123.225 29.0524 123.523 28.9777 123.747 28.9777C123.747 28.8283 123.896 28.7536 124.045 28.6789C124.12 28.6789 124.12 28.6043 124.194 28.6043C123.3 28.2308 122.032 28.2308 121.212 28.6789C120.392 29.0524 120.392 29.7245 121.063 30.1726C121.063 30.1726 121.138 30.1726 121.138 30.0979C121.361 29.9486 121.585 29.8739 121.809 29.8739Z" fill="#5B677E"/>
<path d="M124.567 30.6207C124.343 30.7701 123.971 30.7701 123.747 30.6207L123.672 30.546C123.598 30.546 123.598 30.4713 123.672 30.4713C123.747 30.4713 123.822 30.4713 123.822 30.4713L123.896 30.546C124.045 30.6207 124.269 30.6207 124.418 30.546C124.567 30.4713 124.567 30.3967 124.418 30.322L120.989 28.6042C120.914 28.6042 120.914 28.5295 120.989 28.5295C121.063 28.5295 121.138 28.5295 121.138 28.5295L124.567 30.2473C124.791 30.322 124.791 30.4713 124.567 30.6207Z" fill="#5B677E"/>
<path d="M79.5409 3.21142L66.4208 9.78368L65.9735 9.55963L79.0937 2.98737L79.5409 3.21142Z" fill="#5B677E"/>
<path d="M80.8083 3.80892L67.6881 10.3812L67.3154 10.2318L80.361 3.65955L80.8083 3.80892Z" fill="#5B677E"/>
<path d="M82.0755 4.48107L68.9554 11.0533L68.5826 10.8293L81.7028 4.25702L82.0755 4.48107Z" fill="#5B677E"/>
<path d="M83.3428 5.15325L70.2972 11.7255L69.8499 11.5015L82.9701 4.9292L83.3428 5.15325Z" fill="#5B677E"/>
<path d="M65.899 55.7895L52.8533 62.3618L52.4061 62.1377L65.5262 55.6401L65.899 55.7895Z" fill="#5B677E"/>
<path d="M67.2408 56.4617L54.1207 63.034L53.7479 62.8099L66.7935 56.2377L67.2408 56.4617Z" fill="#5B677E"/>
<path d="M68.5081 57.1338L55.3879 63.6314L55.0152 63.482L68.0608 56.9098L68.5081 57.1338Z" fill="#5B677E"/>
<path d="M69.7754 57.7313L56.6552 64.3035L56.2825 64.0795L69.4026 57.5819L69.7754 57.7313Z" fill="#5B677E"/>
</svg>
