<svg width="15" height="13" viewBox="0 0 15 13" fill="none" xmlns="http://www.w3.org/2000/svg">
<path fill-rule="evenodd" clip-rule="evenodd" d="M0 1.07143C0 0.787268 0.112882 0.514746 0.313814 0.313814C0.514746 0.112883 0.787268 0 1.07143 0H13.9286C14.2127 0 14.4853 0.112883 14.6862 0.313814C14.8871 0.514746 15 0.787268 15 1.07143C15 1.35559 14.8871 1.62811 14.6862 1.82904C14.4853 2.02997 14.2127 2.14286 13.9286 2.14286H1.07143C0.787268 2.14286 0.514746 2.02997 0.313814 1.82904C0.112882 1.62811 0 1.35559 0 1.07143Z" fill="#1D4354"/>
<path fill-rule="evenodd" clip-rule="evenodd" d="M0 6.42858C0 6.14442 0.112882 5.87189 0.313814 5.67096C0.514746 5.47003 0.787268 5.35715 1.07143 5.35715H13.9286C14.2127 5.35715 14.4853 5.47003 14.6862 5.67096C14.8871 5.87189 15 6.14442 15 6.42858C15 6.71274 14.8871 6.98526 14.6862 7.18619C14.4853 7.38712 14.2127 7.5 13.9286 7.5H1.07143C0.787268 7.5 0.514746 7.38712 0.313814 7.18619C0.112882 6.98526 0 6.71274 0 6.42858Z" fill="#1D4354"/>
<path fill-rule="evenodd" clip-rule="evenodd" d="M0 11.7857C0 11.5016 0.112882 11.229 0.313814 11.0281C0.514746 10.8272 0.787268 10.7143 1.07143 10.7143H13.9286C14.2127 10.7143 14.4853 10.8272 14.6862 11.0281C14.8871 11.229 15 11.5016 15 11.7857C15 12.0699 14.8871 12.3424 14.6862 12.5433C14.4853 12.7443 14.2127 12.8572 13.9286 12.8572H1.07143C0.787268 12.8572 0.514746 12.7443 0.313814 12.5433C0.112882 12.3424 0 12.0699 0 11.7857Z" fill="#1D4354"/>
</svg>
