<svg width="18" height="17" viewBox="0 0 18 17" fill="none" xmlns="http://www.w3.org/2000/svg">
<path d="M3.49994 4.3335H14.9916C15.2245 4.3335 15.4547 4.38231 15.6676 4.47675C15.8804 4.5712 16.0711 4.70919 16.2273 4.88184C16.3836 5.05449 16.5019 5.25796 16.5747 5.47914C16.6475 5.70032 16.6731 5.9343 16.6499 6.166L16.1499 11.166C16.1088 11.5773 15.9164 11.9586 15.6099 12.2359C15.3035 12.5132 14.9049 12.6668 14.4916 12.6668H6.53327C6.14783 12.667 5.77425 12.5335 5.47614 12.2892C5.17803 12.0449 4.97382 11.7048 4.89827 11.3268L3.49994 4.3335Z" stroke="white" stroke-width="2" stroke-linejoin="round"/>
<path d="M3.5 4.33333L2.825 1.63083C2.77986 1.45063 2.67579 1.29067 2.52934 1.17638C2.38289 1.06209 2.20244 1 2.01667 1H1" stroke="white" stroke-width="2" stroke-linecap="round" stroke-linejoin="round"/>
<path d="M6.00006 16H7.66673" stroke="white" stroke-width="2" stroke-linecap="round" stroke-linejoin="round"/>
<path d="M12.6667 16H14.3334" stroke="white" stroke-width="2" stroke-linecap="round" stroke-linejoin="round"/>
</svg>
